<?xml version="1.0" encoding="utf-8"?>
<!-- Generator: Adobe Illustrator 24.0.3, SVG Export Plug-In . SVG Version: 6.00 Build 0)  -->
<svg version="1.1" id="Layer_1" xmlns="http://www.w3.org/2000/svg" xmlns:xlink="http://www.w3.org/1999/xlink" x="0px" y="0px"
	 viewBox="0 0 1500 1000" style="enable-background:new 0 0 1500 1000;" xml:space="preserve">
<style type="text/css">
	.st0{fill:#59B18F;}
	.st1{fill:#02B1CE;}
	.st2{clip-path:url(#SVGID_2_);fill:#FFFFFF;}
	.st3{clip-path:url(#SVGID_2_);fill:#C9E3DA;}
	.st4{clip-path:url(#SVGID_2_);fill:#02B1CE;}
	.st5{clip-path:url(#SVGID_2_);fill:#59B18F;}
	.st6{display:none;clip-path:url(#SVGID_2_);fill:#59B18F;}
	.st7{clip-path:url(#SVGID_2_);fill:#FEC925;}
</style>
<g>
	<g>
		<path class="st0" d="M611.46,424.23c0-5.63,0.72-11.05,2.15-16.23c1.43-5.18,3.48-10.05,6.14-14.59c2.66-4.55,5.84-8.68,9.54-12.4
			c3.7-3.72,7.81-6.9,12.33-9.53c4.52-2.63,9.38-4.68,14.56-6.14c5.19-1.46,10.6-2.19,16.24-2.19c5.59,0,10.99,0.73,16.2,2.19
			c5.21,1.46,10.08,3.51,14.6,6.14c4.52,2.63,8.65,5.81,12.37,9.53c3.72,3.72,6.9,7.86,9.54,12.4c2.63,4.54,4.68,9.41,6.14,14.59
			c1.46,5.18,2.19,10.6,2.19,16.23c0,5.64-0.73,11.05-2.19,16.23c-1.46,5.18-3.51,10.02-6.14,14.52c-2.63,4.49-5.81,8.59-9.54,12.28
			c-3.72,3.7-7.85,6.87-12.37,9.53c-4.52,2.66-9.39,4.71-14.6,6.14c-5.21,1.44-10.61,2.15-16.2,2.15c-5.64,0-11.05-0.72-16.24-2.15
			c-5.19-1.44-10.04-3.48-14.56-6.14c-4.52-2.66-8.63-5.83-12.33-9.53c-3.7-3.69-6.88-7.79-9.54-12.28
			c-2.66-4.49-4.71-9.33-6.14-14.52C612.18,435.28,611.46,429.87,611.46,424.23z M642.33,424.15c0,4.41,0.74,8.53,2.23,12.36
			c1.49,3.83,3.57,7.16,6.25,10.01c2.68,2.85,5.85,5.08,9.52,6.7c3.66,1.62,7.7,2.43,12.11,2.43c4.41,0,8.46-0.81,12.15-2.43
			c3.69-1.62,6.88-3.85,9.56-6.7c2.68-2.84,4.77-6.18,6.25-10.01c1.49-3.83,2.23-7.95,2.23-12.36c0-4.36-0.74-8.47-2.23-12.32
			c-1.49-3.86-3.57-7.22-6.25-10.09c-2.68-2.87-5.87-5.13-9.56-6.78c-3.69-1.65-7.74-2.47-12.15-2.47c-4.41,0-8.44,0.82-12.11,2.47
			c-3.66,1.65-6.84,3.91-9.52,6.78c-2.68,2.87-4.77,6.23-6.25,10.09C643.07,415.69,642.33,419.79,642.33,424.15z"/>
		<path class="st0" d="M753.26,368.41c0-0.96,0.29-1.78,0.88-2.47c0.58-0.69,1.46-1.04,2.63-1.04h26.08c0.74,0,1.52,0.19,2.31,0.56
			c0.8,0.37,1.49,1.01,2.07,1.91c6.75,10.9,13.45,21.64,20.1,32.22c6.65,10.58,13.37,21.32,20.18,32.22v-63.88
			c0.21-0.96,0.64-1.7,1.28-2.23c0.64-0.53,1.38-0.8,2.23-0.8h22.73c1.12,0,2.05,0.31,2.79,0.92c0.74,0.61,1.12,1.47,1.12,2.59
			v111.81c0,1.07-0.32,1.85-0.96,2.35c-0.64,0.51-1.52,0.76-2.63,0.76h-25.44c-0.69,0-1.3-0.24-1.83-0.72
			c-0.53-0.48-1.09-1.12-1.67-1.92c-7.07-11.7-14.06-23.26-20.97-34.69c-6.91-11.43-13.93-22.99-21.05-34.69v68.51
			c0,1.17-0.27,2.05-0.8,2.63c-0.53,0.59-1.49,0.88-2.87,0.88h-22.65c-1.22,0-2.11-0.33-2.67-1c-0.56-0.67-0.84-1.47-0.84-2.43
			V368.41z"/>
		<path class="st0" d="M877.19,368.39c0-1.06,0.36-1.91,1.08-2.54s1.61-0.95,2.67-0.95h85.81c0.96,0,1.81,0.29,2.55,0.87
			c0.74,0.58,1.17,1.46,1.28,2.62v19.8c0,0.95-0.33,1.87-1,2.74c-0.67,0.87-1.61,1.31-2.83,1.31h-27.51v87.32
			c0,0.96-0.34,1.82-1.03,2.59c-0.69,0.77-1.59,1.16-2.7,1.16h-23.39c-0.9,0-1.75-0.36-2.55-1.08c-0.8-0.72-1.19-1.61-1.19-2.67
			v-87.32h-27.43c-1.06,0-1.95-0.34-2.67-1.03s-1.08-1.7-1.08-3.02V368.39z"/>
		<path class="st0" d="M1008.14,368.01c0.05-0.32,0.23-0.66,0.52-1.04c0.29-0.37,0.65-0.72,1.08-1.04c0.42-0.32,0.88-0.57,1.36-0.76
			c0.48-0.19,0.93-0.28,1.36-0.28h20.42c0.9,0,1.67,0.28,2.31,0.84c0.64,0.56,1.12,1.05,1.43,1.47l1.99,4.55l41.87,107.98
			c0.42,1.06,0.34,1.93-0.24,2.59c-0.59,0.67-1.6,1-3.03,1h-22.89c-1.22,0-2.17-0.23-2.83-0.68c-0.67-0.45-1.18-1.21-1.56-2.27
			c-1.06-2.71-2.1-5.41-3.11-8.09c-1.01-2.68-2.02-5.38-3.03-8.09h-42.35c-1.01,2.71-2.03,5.41-3.07,8.09
			c-1.04,2.69-2.06,5.38-3.07,8.09c-0.69,1.97-2.05,2.95-4.07,2.95h-23.53c-1.01,0-1.85-0.27-2.51-0.8
			c-0.67-0.53-0.78-1.33-0.36-2.39L1008.14,368.01z M1022.66,402.14c-1.01,2.71-2.03,5.64-3.07,8.77c-1.04,3.14-2.06,6.3-3.07,9.49
			c-1.01,3.19-2.03,6.34-3.07,9.45c-1.04,3.11-2.06,6.02-3.07,8.73h24.48L1022.66,402.14z"/>
		<path class="st0" d="M1096.51,368.57c0-1.12,0.29-2.01,0.88-2.67s1.46-1,2.63-1h51.52c5.47,0,10.61,1.02,15.39,3.07
			c4.79,2.05,8.96,4.82,12.52,8.33s6.37,7.62,8.41,12.32c2.05,4.71,3.07,9.72,3.07,15.03c0,3.62-0.49,7.06-1.47,10.33
			c-0.99,3.27-2.35,6.33-4.11,9.17c-1.75,2.85-3.84,5.42-6.26,7.74c-2.42,2.31-5.07,4.29-7.94,5.94l20.5,38.6
			c0.37,0.75,0.85,1.62,1.44,2.63c0.59,1.01,0.88,1.89,0.88,2.63c0,0.85-0.28,1.5-0.84,1.95c-0.56,0.45-1.32,0.68-2.27,0.68h-27.35
			c-0.9,0-1.72-0.27-2.43-0.8c-0.72-0.53-1.18-1.25-1.4-2.15l-19.38-36.45h-12.92v35.97c0,2.29-1.22,3.43-3.67,3.43h-23.69
			c-1.07,0-1.91-0.28-2.55-0.84c-0.64-0.56-0.96-1.42-0.96-2.59V368.57z M1158.95,403.97c0-1.59-0.29-3.19-0.88-4.78
			c-0.59-1.6-1.41-3.06-2.47-4.39c-1.06-1.33-2.34-2.45-3.83-3.35c-1.49-0.9-3.14-1.49-4.94-1.75c-1.49-0.11-2.88-0.2-4.19-0.28
			s-2.73-0.12-4.27-0.12h-11v29.27h14.67c0.96,0,1.81-0.03,2.55-0.08c0.74-0.05,1.57-0.13,2.47-0.24c1.86-0.21,3.53-0.76,5.02-1.64
			c1.49-0.88,2.74-1.97,3.75-3.27c1.01-1.3,1.78-2.76,2.31-4.39C1158.68,407.34,1158.95,405.68,1158.95,403.97z"/>
		<path class="st0" d="M1208.87,368.41c0-0.96,0.29-1.78,0.88-2.47c0.59-0.69,1.46-1.04,2.63-1.04h23.45c0.8,0,1.65,0.32,2.55,0.96
			c0.9,0.64,1.36,1.49,1.36,2.55v111.41c0,2.34-1.3,3.51-3.91,3.51h-23.45c-2.34,0-3.51-1.17-3.51-3.51V368.41z"/>
		<path class="st0" d="M1259.91,424.23c0-5.63,0.72-11.05,2.15-16.23s3.48-10.05,6.14-14.59c2.66-4.55,5.84-8.68,9.54-12.4
			c3.7-3.72,7.81-6.9,12.33-9.53c4.52-2.63,9.38-4.68,14.57-6.14c5.19-1.46,10.6-2.19,16.24-2.19c5.58,0,10.99,0.73,16.2,2.19
			c5.21,1.46,10.08,3.51,14.6,6.14c4.52,2.63,8.65,5.81,12.37,9.53c3.72,3.72,6.9,7.86,9.54,12.4c2.63,4.54,4.68,9.41,6.14,14.59
			c1.46,5.18,2.2,10.6,2.2,16.23c0,5.64-0.73,11.05-2.2,16.23c-1.46,5.18-3.51,10.02-6.14,14.52c-2.63,4.49-5.81,8.59-9.54,12.28
			c-3.72,3.7-7.85,6.87-12.37,9.53c-4.52,2.66-9.39,4.71-14.6,6.14c-5.21,1.44-10.61,2.15-16.2,2.15c-5.64,0-11.05-0.72-16.24-2.15
			c-5.19-1.44-10.04-3.48-14.57-6.14c-4.52-2.66-8.63-5.83-12.33-9.53c-3.7-3.69-6.88-7.79-9.54-12.28
			c-2.66-4.49-4.71-9.33-6.14-14.52C1260.63,435.28,1259.91,429.87,1259.91,424.23z M1290.77,424.15c0,4.41,0.74,8.53,2.23,12.36
			c1.49,3.83,3.57,7.16,6.25,10.01c2.68,2.85,5.85,5.08,9.52,6.7c3.66,1.62,7.7,2.43,12.11,2.43c4.4,0,8.45-0.81,12.14-2.43
			c3.69-1.62,6.88-3.85,9.56-6.7c2.68-2.84,4.77-6.18,6.25-10.01c1.49-3.83,2.23-7.95,2.23-12.36c0-4.36-0.74-8.47-2.23-12.32
			s-3.57-7.22-6.25-10.09c-2.68-2.87-5.87-5.13-9.56-6.78c-3.69-1.65-7.74-2.47-12.14-2.47c-4.41,0-8.44,0.82-12.11,2.47
			c-3.66,1.65-6.84,3.91-9.52,6.78c-2.68,2.87-4.77,6.23-6.25,10.09C1291.52,415.69,1290.77,419.79,1290.77,424.15z"/>
		<path class="st1" d="M614.57,629.28c-1.91-1.35-2.86-3.2-2.86-5.56c0-1.8,0.62-3.37,1.85-4.72c1.23-1.35,2.8-2.02,4.72-2.02
			c1.01,0,2.02,0.23,3.03,0.67c3.59,1.57,7.18,2.81,10.78,3.71c3.59,0.9,7.63,1.35,12.13,1.35c12.46,0,18.7-3.99,18.7-11.96
			c0-2.58-1.43-4.55-4.3-5.9c-2.86-1.35-7.55-2.86-14.06-4.55c-6.63-1.57-12.1-3.2-16.42-4.88c-4.32-1.68-8.03-4.24-11.12-7.67
			c-3.09-3.42-4.63-7.94-4.63-13.56c0-7.86,2.83-14.26,8.51-19.2c5.67-4.94,13.78-7.41,24.34-7.41c8.65,0,16.79,1.4,24.42,4.21
			c1.57,0.45,2.78,1.29,3.62,2.53c0.84,1.24,1.26,2.53,1.26,3.87c0,1.8-0.65,3.37-1.94,4.72c-1.29,1.35-2.89,2.02-4.8,2.02
			c-0.56,0-1.29-0.11-2.19-0.34c-6.51-2.02-12.91-3.03-19.2-3.03c-6.06,0-10.81,1.09-14.23,3.28c-3.43,2.19-5.14,5.03-5.14,8.51
			c0,3.37,1.57,5.84,4.72,7.41c3.14,1.57,8.03,3.09,14.65,4.55c6.62,1.68,12.01,3.34,16.17,4.97c4.15,1.63,7.72,4.19,10.7,7.66
			c2.97,3.48,4.46,8.14,4.46,13.98c0,7.19-2.84,13.14-8.51,17.85c-5.67,4.72-13.67,7.07-24,7.07
			C633.99,636.86,623.78,634.33,614.57,629.28z"/>
		<path class="st1" d="M711.5,632.48c-4.55-2.92-8.03-6.91-10.44-11.96c-2.42-5.05-3.62-10.61-3.62-16.67v-47.84
			c0-2.13,0.76-3.93,2.27-5.39c1.52-1.46,3.34-2.19,5.47-2.19c2.13,0,3.93,0.73,5.39,2.19c1.46,1.46,2.19,3.26,2.19,5.39v46.15
			c0,13.7,6.17,20.55,18.53,20.55c5.61,0,10.64-1.46,15.07-4.38c4.43-2.92,8.62-6.85,12.55-11.79v-50.53c0-2.13,0.76-3.93,2.27-5.39
			c1.52-1.46,3.34-2.19,5.47-2.19c2.13,0,3.93,0.73,5.39,2.19c1.46,1.46,2.19,3.26,2.19,5.39v72.26c0,2.13-0.73,3.96-2.19,5.47
			c-1.46,1.52-3.26,2.27-5.39,2.27c-2.13,0-3.96-0.76-5.47-2.27c-1.52-1.52-2.27-3.34-2.27-5.47v-6.91
			c-4.27,4.72-8.87,8.48-13.81,11.28c-4.94,2.81-10.78,4.21-17.52,4.21C721.41,636.86,716.05,635.4,711.5,632.48z"/>
		<path class="st1" d="M803.04,633.82c-1.46-1.46-2.19-3.26-2.19-5.39v-72.26c0-2.13,0.73-3.96,2.19-5.47
			c1.46-1.52,3.26-2.27,5.39-2.27c2.13,0,3.96,0.76,5.47,2.27c1.52,1.52,2.27,3.34,2.27,5.47v6.91c3.14-4.49,6.93-8.2,11.37-11.12
			c4.43-2.92,10.19-4.38,17.26-4.38c6.29,0,11.68,1.68,16.17,5.05c4.49,3.37,7.69,7.47,9.6,12.3c6.96-11.56,17.29-17.35,30.99-17.35
			c6.29,0,11.54,1.57,15.75,4.72c4.21,3.14,7.33,7.19,9.35,12.13c2.02,4.94,3.03,10.11,3.03,15.5v48.51c0,2.13-0.76,3.93-2.27,5.39
			c-1.52,1.46-3.34,2.19-5.47,2.19c-2.13,0-3.93-0.73-5.39-2.19c-1.46-1.46-2.19-3.26-2.19-5.39v-45.48c0-7.3-1.29-12.66-3.87-16.08
			c-2.58-3.42-7.02-5.14-13.31-5.14c-5.73,0-10.47,1.49-14.23,4.46c-3.76,2.98-7.1,6.88-10.02,11.71v50.53
			c0,2.13-0.76,3.93-2.27,5.39c-1.52,1.46-3.34,2.19-5.47,2.19c-2.13,0-3.93-0.73-5.39-2.19c-1.46-1.46-2.19-3.26-2.19-5.39v-45.48
			c0-7.3-1.29-12.66-3.87-16.08c-2.58-3.42-7.02-5.14-13.31-5.14c-5.73,0-10.47,1.49-14.23,4.46c-3.76,2.98-7.1,6.88-10.02,11.71
			v50.53c0,2.13-0.76,3.93-2.27,5.39c-1.52,1.46-3.34,2.19-5.47,2.19C806.3,636.02,804.5,635.28,803.04,633.82z"/>
		<path class="st1" d="M957.67,633.82c-1.46-1.46-2.19-3.26-2.19-5.39v-72.26c0-2.13,0.73-3.96,2.19-5.47
			c1.46-1.52,3.26-2.27,5.39-2.27c2.13,0,3.96,0.76,5.47,2.27c1.52,1.52,2.27,3.34,2.27,5.47v6.91c3.14-4.49,6.93-8.2,11.37-11.12
			c4.43-2.92,10.19-4.38,17.26-4.38c6.29,0,11.68,1.68,16.17,5.05c4.49,3.37,7.69,7.47,9.6,12.3c6.96-11.56,17.29-17.35,30.99-17.35
			c6.29,0,11.54,1.57,15.75,4.72c4.21,3.14,7.33,7.19,9.35,12.13c2.02,4.94,3.03,10.11,3.03,15.5v48.51c0,2.13-0.76,3.93-2.27,5.39
			c-1.52,1.46-3.34,2.19-5.47,2.19c-2.13,0-3.93-0.73-5.39-2.19c-1.46-1.46-2.19-3.26-2.19-5.39v-45.48c0-7.3-1.29-12.66-3.87-16.08
			c-2.58-3.42-7.02-5.14-13.31-5.14c-5.73,0-10.47,1.49-14.23,4.46c-3.76,2.98-7.1,6.88-10.02,11.71v50.53
			c0,2.13-0.76,3.93-2.27,5.39c-1.52,1.46-3.34,2.19-5.47,2.19c-2.13,0-3.93-0.73-5.39-2.19c-1.46-1.46-2.19-3.26-2.19-5.39v-45.48
			c0-7.3-1.29-12.66-3.87-16.08c-2.58-3.42-7.02-5.14-13.31-5.14c-5.73,0-10.47,1.49-14.23,4.46c-3.76,2.98-7.1,6.88-10.02,11.71
			v50.53c0,2.13-0.76,3.93-2.27,5.39c-1.52,1.46-3.34,2.19-5.47,2.19C960.92,636.02,959.12,635.28,957.67,633.82z"/>
		<path class="st1" d="M1116.42,625.15c-7.69-7.8-11.54-18.78-11.54-32.93c0-7.97,1.46-15.33,4.38-22.06
			c2.92-6.74,7.41-12.18,13.47-16.34c6.06-4.15,13.53-6.23,22.4-6.23c8.31,0,15.5,1.94,21.56,5.81c6.06,3.87,10.67,9.04,13.81,15.5
			c3.14,6.46,4.72,13.5,4.72,21.14c0,2.13-0.7,3.93-2.11,5.39c-1.4,1.46-3.28,2.19-5.64,2.19h-57.1c0.9,7.86,3.82,13.98,8.76,18.36
			c4.94,4.38,11.85,6.57,20.72,6.57c4.72,0,8.84-0.45,12.38-1.35c3.54-0.9,6.99-2.19,10.36-3.87c0.9-0.45,1.91-0.67,3.03-0.67
			c1.79,0,3.37,0.62,4.72,1.85c1.35,1.24,2.02,2.81,2.02,4.72c0,2.47-1.46,4.55-4.38,6.23c-4.38,2.47-8.7,4.32-12.97,5.56
			c-4.27,1.24-9.77,1.85-16.51,1.85C1134.8,636.86,1124.11,632.96,1116.42,625.15z M1170.06,585.15c-0.34-5.5-1.77-10.11-4.29-13.81
			s-5.64-6.43-9.35-8.17c-3.71-1.74-7.47-2.61-11.29-2.61c-3.82,0-7.58,0.87-11.28,2.61c-3.71,1.74-6.8,4.46-9.26,8.17
			c-2.47,3.71-3.87,8.31-4.21,13.81H1170.06z"/>
		<path class="st1" d="M1207.62,633.82c-1.46-1.46-2.19-3.26-2.19-5.39v-72.26c0-2.13,0.73-3.96,2.19-5.47
			c1.46-1.52,3.26-2.27,5.39-2.27c2.13,0,3.96,0.76,5.47,2.27c1.52,1.52,2.27,3.34,2.27,5.47v7.24
			c7.86-10.55,16.67-15.83,26.44-15.83h0.84c2.13,0,3.9,0.73,5.31,2.19c1.4,1.46,2.11,3.26,2.11,5.39c0,2.13-0.73,3.87-2.19,5.22
			c-1.46,1.35-3.31,2.02-5.56,2.02h-0.84c-5.39,0-10.33,1.32-14.82,3.96c-4.49,2.64-8.25,6.26-11.28,10.86v51.21
			c0,2.13-0.76,3.93-2.27,5.39c-1.52,1.46-3.34,2.19-5.47,2.19C1210.88,636.02,1209.08,635.28,1207.62,633.82z"/>
	</g>
	<g>
		<g>
			<defs>
				<circle id="SVGID_1_" cx="347.36" cy="500" r="221.82"/>
			</defs>
			<clipPath id="SVGID_2_">
				<use xlink:href="#SVGID_1_"  style="overflow:visible;"/>
			</clipPath>
			<circle class="st2" cx="347.36" cy="500" r="221.82"/>
			<path class="st3" d="M554.35,479.36c-0.48-5.37-0.91-16.02-8.28-18.87c-10.82-4.19-23.13,1.47-48.77,3.04
				c-37.58,2.3-102.29,9.82-151.45-9.63s-53.06-72.98-80.05-102.15c-26.99-29.17-43.63-17.36-57.73-5.45
				c-21.26,17.97-39.13,44.83-49.39,67.81c-8.39,18.79-10.7,28.74-11.78,33.62c-2,9.06-7.58,19.3-5.36,41.44
				c1.94,19.37,27.29,2.87,62.78,4.72c36.45,1.9,83.49,15.28,103.44,24.47c22.26,10.25,38.87-0.77,79.27-11.31
				c59.17-15.44,82.72-9.07,100.58-4.27c12.19,3.28,16.3,4.45,41.77,12.83C560.4,525.81,555.44,491.67,554.35,479.36z"/>
			<path class="st4" d="M201.34,620.06c0.42,0.05,0.84,0.07,1.27,0.06c3.2-0.05,17.7-0.47,31.32-3.57
				c20.6-4.69,71.09-37.68,91.24-50.56s59.33-38.16,88.44-44.36c29.11-6.2,57.76-5.86,81.16,3.34c22.28,8.76,35.2,20.68,39.02,33.13
				c3.32,10.84,4.99,31.8-7.12,46.22c-0.93,1.1-2.03,2.03-3.29,2.73c-10.49,5.79-19.22-5.11-24.17-9.54
				c-8.37-7.49-25.23-9.77-40.33-7.83c-15.43,1.98-41.74,6.8-68.23,25.7c-26.49,18.9-53.2,46.98-74.54,57.48
				c-18.2,8.96-27.71,17.37-55.39,12.71c-27.44-4.62-59.71-36.57-71.28-50.38C182.09,626.44,186.1,618.41,201.34,620.06z"/>
			<path class="st5" d="M304.7,546.35c3.7,2.45,3.53,7.2-0.1,10.29c-14.05,11.98-45.35,28.35-63.1,34.58
				c-22.4,7.85-60.17,20.53-74.49,2.77c-18.78-23.28-28.69-55.8-19.12-69.12c9.99-13.91,36.5-13.29,66.58-11.99
				C238.05,513.91,265.97,520.67,304.7,546.35z"/>
			<path class="st6" d="M298.1,705.49c0,0,67.37-31.43,95.48-62.81c29.52-35.01,77.5-33.6,84.37-30.89
				c13.74,5.4,49.18,37.59,13.12,43.94c-8.17,16.85-39.74,29.12-62.38,38.66c-22.64,9.54-72.94,21.55-94.34,17.95
				C312.95,708.73,297.8,705.41,298.1,705.49z"/>
			<path class="st2" d="M304,408.28c2.55,6.51,7.13,12.01,12.97,15.86c11.7,7.72,30.98,19.16,71.36,26.41
				c63.15,11.34,150.23-4.34,170.24-8.27c2.36-0.46,3.84-2.81,3.23-5.13c-4.15-16.03-23.27-73.78-91.38-116.59
				c-79.82-50.17-116.03,1.68-139.11,30.45C305.48,383.21,298.49,394.21,304,408.28z"/>
			<path class="st3" d="M330.83,401.78c2.11,5.37,5.92,9.92,10.76,13.09c9.71,6.37,25.7,15.82,59.2,21.8
				c47.22,8.44,104.54,7.76,127.51-1.02c7.74-2.96,14.39-9.6,9.26-20.23c-8.49-17.6-28.09-57.12-76.61-89.06
				c-65.24-42.94-75.29-0.37-107.45,28.14C327.93,377.17,326.26,390.16,330.83,401.78z"/>
			<path class="st5" d="M435.17,379.49l-17.23,69.68c-0.76,3.08,1.57,6.05,4.74,6.05h34.46c3.17,0,5.5-2.97,4.74-6.05l-17.23-69.68
				C443.42,374.55,436.39,374.55,435.17,379.49z"/>
			<path class="st5" d="M477.75,358.82L465,441.94c-0.42,2.74,1.7,5.21,4.47,5.21h25.49c2.77,0,4.89-2.47,4.47-5.21l-12.75-83.12
				C485.9,353.7,478.53,353.7,477.75,358.82z"/>
			<path class="st7" d="M268.74,333.63c4.68,3.3,7.13,5.19,11.34,9.04c5.9,5.39,9.9,9.24,14.65,13.13
				c7.56,6.19,23.92,5.65,40.85-7.69c8.26-6.51,36.81-35.92,40.91-39.94c7.98-7.82-1.14-17.43-35.98-15.84
				c-35.12,1.61-62.72,9.8-79.94,20.01C248.27,319.65,257.23,325.53,268.74,333.63z"/>
			<path class="st5" d="M502.17,631.22c-0.02-5.17-2-11.8-9.08-16.75c-0.08-0.05-0.16-0.1-0.23-0.15c-14.53-8.89-31.3-12.6-59.8-1.6
				c-0.06,0.02-1.81,0.61-1.88,0.63c-1.53,0.38-21.05,7.69-42.97,26.32c-0.04,0.04-0.09,0.08-0.13,0.12
				c-32.56,30.93-56.66,44.52-68.03,49.46c-6.48,2.82-16.02,4.51-23.02,5.45c-3.1,0.41-3.38,4.81-0.34,5.58
				c0.1,0.03,0.2,0.05,0.3,0.08c10.05,2.51,54.99,13.56,115.29-4.79c49.68-15.12,78.37-43.13,85.98-54.26
				C500.72,637.69,502.19,634.54,502.17,631.22z"/>
			<use xlink:href="#SVGID_1_"  style="overflow:visible;fill:none;stroke:#FFFFFF;stroke-width:22;stroke-miterlimit:10;"/>
		</g>
	</g>
</g>
</svg>
