<?xml version="1.0" encoding="utf-8"?>
<!-- Generator: Adobe Illustrator 24.0.3, SVG Export Plug-In . SVG Version: 6.00 Build 0)  -->
<svg version="1.1" id="Layer_1" xmlns="http://www.w3.org/2000/svg" xmlns:xlink="http://www.w3.org/1999/xlink" x="0px" y="0px"
	 viewBox="0 0 1000 1000" style="enable-background:new 0 0 1000 1000;" xml:space="preserve">
<style type="text/css">
	.st0{clip-path:url(#SVGID_2_);fill:#FFFFFF;}
	.st1{clip-path:url(#SVGID_2_);fill:#C9E3DA;}
	.st2{clip-path:url(#SVGID_2_);fill:#02B1CE;}
	.st3{clip-path:url(#SVGID_2_);fill:#59B18F;}
	.st4{display:none;clip-path:url(#SVGID_2_);fill:#59B18F;}
	.st5{clip-path:url(#SVGID_2_);fill:#FEC925;}
</style>
<g>
	<defs>
		<circle id="SVGID_1_" cx="500" cy="500" r="362.94"/>
	</defs>
	<clipPath id="SVGID_2_">
		<use xlink:href="#SVGID_1_"  style="overflow:visible;"/>
	</clipPath>
	<circle class="st0" cx="500" cy="500" r="362.94"/>
	<path class="st1" d="M838.68,466.23c-0.78-8.79-1.49-26.21-13.55-30.88c-17.7-6.86-37.85,2.41-79.79,4.97
		c-61.49,3.76-167.37,16.07-247.8-15.75s-86.82-119.4-130.98-167.13s-71.39-28.4-94.45-8.91c-34.79,29.4-64.02,73.35-80.81,110.95
		c-13.72,30.75-17.51,47.02-19.27,55.01c-3.26,14.83-12.4,31.57-8.77,67.81c3.17,31.7,44.65,4.7,102.73,7.72
		c59.64,3.1,136.6,25,169.25,40.03c36.43,16.77,63.6-1.26,129.7-18.5c96.82-25.26,135.34-14.85,164.56-6.98
		c19.95,5.37,26.67,7.28,68.34,20.99C848.58,542.23,840.46,486.37,838.68,466.23z"/>
	<path class="st2" d="M261.09,696.45c0.69,0.07,1.38,0.12,2.07,0.11c5.23-0.09,28.96-0.76,51.25-5.84
		c33.71-7.67,116.31-61.66,149.28-82.73c32.97-21.07,97.08-62.44,144.7-72.58c47.62-10.15,94.51-9.59,132.8,5.46
		c36.46,14.34,57.6,33.84,63.84,54.21c5.43,17.74,8.16,52.04-11.66,75.62c-1.51,1.8-3.33,3.33-5.39,4.46
		c-17.17,9.48-31.45-8.36-39.54-15.6c-13.69-12.25-41.29-15.98-66-12.81c-25.25,3.24-68.29,11.13-111.63,42.05
		c-43.34,30.92-87.04,76.86-121.96,94.05c-29.78,14.66-45.34,28.42-90.62,20.79c-44.9-7.56-97.7-59.84-116.64-82.43
		C229.58,706.89,236.15,693.74,261.09,696.45z"/>
	<path class="st3" d="M430.2,575.84c6.05,4.01,5.78,11.78-0.16,16.84c-22.98,19.6-74.19,46.39-103.25,56.58
		c-36.65,12.84-98.45,33.59-121.88,4.53c-30.73-38.09-46.95-91.3-31.28-113.1c16.35-22.76,59.72-21.75,108.93-19.61
		C321.15,522.76,366.84,533.83,430.2,575.84z"/>
	<path class="st4" d="M419.39,836.22c0,0,110.22-51.43,156.22-102.76c48.3-57.29,126.8-54.97,138.04-50.55
		c22.48,8.84,80.47,61.5,21.47,71.89c-13.37,27.57-65.02,47.65-102.06,63.26s-119.35,35.27-154.35,29.37
		C443.71,841.53,418.91,836.09,419.39,836.22z"/>
	<path class="st0" d="M429.06,349.93c4.17,10.65,11.67,19.65,21.21,25.95c19.15,12.63,50.68,31.35,116.76,43.22
		c103.32,18.55,245.8-7.09,278.55-13.53c3.86-0.76,6.28-4.59,5.29-8.4c-6.78-26.22-38.08-120.72-149.51-190.77
		c-130.6-82.09-189.85,2.75-227.62,49.82C431.48,308.9,420.04,326.9,429.06,349.93z"/>
	<path class="st1" d="M472.96,339.29c3.46,8.79,9.68,16.22,17.6,21.42c15.88,10.43,42.04,25.88,96.86,35.68
		c77.26,13.8,171.04,12.7,208.62-1.66c12.67-4.84,23.54-15.71,15.15-33.1c-13.89-28.8-45.96-93.47-125.35-145.72
		c-106.74-70.25-123.19-0.61-175.81,46.04C468.21,299.03,465.48,320.28,472.96,339.29z"/>
	<path class="st3" d="M646.69,290.64l-32.16,130.05c-0.76,3.08,1.57,6.05,4.74,6.05h64.32c3.17,0,5.5-2.97,4.74-6.05l-32.16-130.05
		C654.94,285.7,647.91,285.7,646.69,290.64z"/>
	<path class="st3" d="M716.18,250.45l-24.21,157.87c-0.42,2.74,1.7,5.21,4.47,5.21h48.42c2.77,0,4.89-2.47,4.47-5.21l-24.21-157.87
		C724.34,245.34,716.97,245.34,716.18,250.45z"/>
	<path class="st5" d="M371.37,227.78c7.66,5.39,11.66,8.5,18.56,14.8c9.66,8.83,16.19,15.11,23.97,21.48
		c12.37,10.12,39.13,9.24,66.83-12.58c13.51-10.64,60.23-58.77,66.94-65.35c13.05-12.8-1.87-28.52-58.88-25.91
		c-57.46,2.63-102.62,16.04-130.79,32.75C337.87,204.91,352.54,214.53,371.37,227.78z"/>
	<path class="st3" d="M753.31,714.71c-0.04-8.45-3.27-19.31-14.86-27.41c-0.12-0.09-0.25-0.17-0.38-0.25
		c-23.78-14.54-51.21-20.62-97.84-2.61c-0.1,0.04-2.97,1-3.07,1.02c-2.5,0.61-34.43,12.59-70.3,43.06
		c-0.07,0.06-0.15,0.13-0.22,0.19c-53.27,50.62-92.71,72.84-111.31,80.92c-10.61,4.61-26.2,7.38-37.66,8.91
		c-5.07,0.68-5.52,7.86-0.56,9.13c0.16,0.04,0.32,0.08,0.49,0.12c16.44,4.11,89.97,22.19,188.64-7.84
		c81.29-24.74,128.23-70.57,140.68-88.78C750.93,725.29,753.33,720.13,753.31,714.71z"/>
	<use xlink:href="#SVGID_1_"  style="overflow:visible;fill:none;stroke:#FFFFFF;stroke-width:22;stroke-miterlimit:10;"/>
</g>
</svg>
